<?xml version="1.0" encoding="UTF-8" standalone="yes"?>
<!DOCTYPE svg PUBLIC "-//W3C//DTD SVG 1.1//EN" "http://www.w3.org/Graphics/SVG/1.1/DTD/svg11.dtd">
<svg viewBox="0 0 51 51" height="51.0pt" width="51.0pt" xmlns="http://www.w3.org/2000/svg" version="1.1">
<path d="M 0.00 0.00 L 51.00 0.00 L 51.00 51.00 L 26.20 51.00 C 26.18 49.14 26.14 47.29 26.11 45.43 C 24.57 45.86 22.83 46.12 21.44 46.92 C 21.31 48.92 22.15 50.36 23.98 51.26 C 23.63 49.98 23.28 48.70 22.93 47.42 C 23.58 47.52 24.24 47.61 24.89 47.70 C 24.67 48.80 24.44 49.90 24.20 51.00 L 0.00 51.00 L 0.00 0.00 Z" fill="#ffffff" />
<path d="M 23.93 0.28 C 28.28 -0.25 31.16 2.16 33.88 5.16 C 31.90 5.96 30.07 6.86 28.36 8.15 C 29.08 8.67 29.80 9.18 30.52 9.70 C 31.30 11.60 32.08 13.51 32.85 15.42 C 33.66 14.11 34.50 12.81 35.35 11.52 C 36.76 13.75 37.30 15.74 37.62 18.37 C 40.36 17.15 42.54 16.71 45.57 16.72 C 45.40 20.00 44.14 21.97 42.11 24.38 C 44.69 25.18 46.50 26.07 48.48 27.92 C 47.05 28.52 45.62 29.10 44.18 29.67 C 44.02 31.95 43.78 34.21 43.46 36.47 C 42.71 36.56 41.97 36.65 41.23 36.75 C 41.44 34.29 41.62 31.83 41.68 29.37 C 40.39 29.88 39.11 30.40 37.83 30.93 C 38.62 32.35 39.42 33.76 40.22 35.18 C 38.18 37.53 36.17 39.89 34.02 42.13 C 28.07 42.08 22.11 42.04 16.16 42.13 C 14.12 39.82 12.13 37.47 10.03 35.20 C 10.85 33.76 11.51 32.24 12.32 30.80 C 11.05 30.33 9.79 29.87 8.52 29.42 C 8.64 31.96 8.83 34.49 8.91 37.02 C 5.28 36.44 6.67 32.32 6.15 29.71 C 4.69 29.14 3.23 28.55 1.78 27.95 C 3.69 26.05 5.47 25.20 8.03 24.41 C 6.04 21.84 5.10 20.02 4.64 16.73 C 7.71 16.71 9.91 17.15 12.70 18.37 C 13.11 16.26 13.39 14.20 14.22 12.22 C 16.31 12.17 16.42 13.95 17.45 15.35 C 18.46 12.44 19.21 9.84 21.83 7.94 C 20.12 6.87 18.34 6.03 16.48 5.26 C 18.59 2.86 20.58 0.76 23.93 0.28 Z" fill="#4f3d13" />
<path d="M 25.00 1.76 C 27.21 1.68 29.07 3.04 30.95 4.02 C 28.91 5.74 27.53 7.37 26.23 9.70 C 22.79 9.50 22.01 6.04 19.35 3.96 C 21.07 3.11 23.04 1.76 25.00 1.76 Z" fill="#e8340c" />
<path d="M 21.34 10.85 C 22.60 10.70 23.88 10.64 25.16 10.65 C 25.19 12.28 25.23 13.91 25.26 15.54 C 23.21 15.54 21.17 15.55 19.12 15.54 C 19.82 13.97 20.49 12.34 21.34 10.85 Z" fill="#f4cd00" />
<path d="M 25.16 10.65 C 26.47 10.66 27.78 10.68 29.09 10.71 C 29.71 12.33 30.34 13.94 30.97 15.56 C 29.07 15.55 27.17 15.54 25.26 15.54 C 25.23 13.91 25.19 12.28 25.16 10.65 Z" fill="#e6a300" />
<path d="M 35.37 14.45 C 35.81 16.91 35.84 19.28 35.67 21.77 C 38.36 19.86 40.92 18.56 44.17 17.88 C 42.85 20.82 41.11 23.16 38.84 25.43 C 41.33 25.87 43.71 26.47 46.04 27.49 C 43.41 27.94 40.77 28.32 38.12 28.65 C 36.66 25.41 35.43 23.71 32.34 21.84 C 33.14 19.29 34.07 16.80 35.37 14.45 Z" fill="#70b62b" />
<path d="M 14.87 14.28 C 16.07 16.76 17.09 19.28 18.01 21.87 C 16.81 22.69 15.61 23.50 14.41 24.32 C 13.65 25.80 12.87 27.26 12.08 28.73 C 9.47 28.34 6.85 27.95 4.25 27.50 C 6.55 26.46 8.90 25.86 11.38 25.40 C 9.13 23.15 7.29 20.83 6.13 17.83 C 9.39 18.64 11.82 19.80 14.54 21.74 C 14.43 19.23 14.58 16.78 14.87 14.28 Z" fill="#70b42b" />
<path d="M 18.81 16.47 C 22.88 16.40 26.94 16.46 31.01 16.55 L 30.95 18.06 C 27.05 18.12 23.08 18.25 19.19 17.98 L 18.81 16.47 Z" fill="#c29705" />
<path d="M 20.00 18.63 C 23.40 18.65 26.81 18.71 30.21 18.82 C 29.90 21.07 29.35 22.60 28.11 24.49 C 26.30 24.56 24.50 24.65 22.69 24.74 C 21.79 23.76 20.90 22.77 20.00 21.79 C 20.00 20.73 20.00 19.68 20.00 18.63 Z" fill="#af6617" />
<path d="M 22.62 21.24 C 24.27 21.28 25.93 21.33 27.58 21.39 C 26.69 23.71 25.19 22.84 23.18 23.06 L 22.62 21.24 Z" fill="#dfc1a0" />
<path d="M 30.68 22.95 C 31.96 23.74 33.23 24.52 34.50 25.31 C 33.10 27.58 31.61 29.75 29.94 31.83 C 28.84 28.15 29.27 26.41 30.68 22.95 Z" fill="#e6a300" />
<path d="M 19.41 23.03 C 20.08 24.64 20.76 26.24 21.44 27.85 C 20.98 29.18 20.53 30.51 20.07 31.84 C 18.59 29.68 17.16 27.50 15.76 25.29 C 16.98 24.53 18.19 23.78 19.41 23.03 Z" fill="#f4cd00" />
<path d="M 23.32 25.75 C 24.48 25.56 25.65 25.41 26.83 25.30 C 28.32 29.16 29.75 32.99 30.31 37.12 C 29.13 35.87 28.18 34.53 27.26 33.09 L 25.98 32.85 L 24.22 32.78 L 22.74 33.03 C 22.10 34.40 21.47 35.77 20.84 37.14 C 19.20 34.95 21.80 30.77 22.26 28.31 C 22.58 27.44 22.93 26.58 23.32 25.75 Z" fill="#d9340d" />
<path d="M 25.24 26.63 C 25.82 28.08 26.40 29.54 26.97 30.99 C 25.71 30.99 24.44 30.98 23.18 30.97 C 23.86 29.52 24.55 28.07 25.24 26.63 Z" fill="#653a10" />
<path d="M 14.84 27.52 C 16.71 29.73 19.84 31.88 19.20 35.15 C 18.52 34.57 17.85 33.99 17.19 33.39 C 16.47 32.74 15.75 32.09 15.03 31.44 C 14.33 30.82 13.65 30.18 12.94 29.57 C 13.57 28.88 14.20 28.20 14.84 27.52 Z" fill="#e0bc02" />
<path d="M 35.38 27.47 C 36.00 28.21 36.62 28.95 37.24 29.69 C 36.03 30.77 34.84 31.85 33.62 32.89 L 32.72 33.60 C 32.06 34.12 31.39 34.65 30.71 35.17 C 30.88 32.67 31.93 31.31 33.53 29.52 C 34.14 28.84 34.76 28.15 35.38 27.47 Z" fill="#dc9c01" />
<path d="M 15.03 31.44 C 15.75 32.09 16.47 32.74 17.19 33.39 C 16.93 34.57 16.68 35.75 16.42 36.94 C 14.82 36.37 13.23 35.77 11.66 35.12 C 12.76 33.87 13.88 32.64 15.03 31.44 Z" fill="#bf6f1b" />
<path d="M 36.96 32.08 C 37.35 33.01 37.72 33.95 38.06 34.89 C 37.45 35.69 36.81 36.47 36.15 37.24 L 33.97 37.23 C 33.56 36.02 33.14 34.81 32.72 33.60 L 33.62 32.89 C 34.73 32.59 35.84 32.31 36.96 32.08 Z" fill="#915812" />
<path d="M 24.22 32.78 L 25.98 32.85 C 26.55 33.86 27.11 34.89 27.66 35.91 C 26.76 35.60 25.87 35.29 24.97 34.97 C 24.13 35.42 23.28 35.86 22.43 36.31 C 23.03 35.13 23.62 33.96 24.22 32.78 Z" fill="#c09605" />
<path d="M 19.05 37.11 C 19.02 38.43 18.97 39.75 18.92 41.07 C 16.73 40.31 15.51 39.14 13.96 37.43 C 15.66 37.30 17.36 37.20 19.05 37.11 Z" fill="#d6b403" />
<path d="M 24.70 36.92 C 24.65 38.10 24.60 39.28 24.55 40.47 C 23.16 40.47 21.77 40.47 20.38 40.46 C 20.40 39.51 20.44 38.55 20.48 37.59 C 21.88 37.34 23.29 37.13 24.70 36.92 Z" fill="#bc6e1b" />
<path d="M 25.68 36.76 C 27.03 37.01 28.39 37.25 29.74 37.50 C 29.83 38.46 29.93 39.43 30.02 40.40 C 28.60 40.44 27.18 40.48 25.76 40.52 C 25.74 39.27 25.71 38.01 25.68 36.76 Z" fill="#9a5b13" />
<path d="M 30.99 37.14 C 31.99 37.17 32.98 37.20 33.97 37.23 L 36.15 37.24 C 35.26 38.31 34.38 39.39 33.49 40.46 C 32.66 40.55 31.83 40.64 31.00 40.73 C 31.01 39.53 31.00 38.34 30.99 37.14 Z" fill="#c18a04" />
<path d="M 40.16 37.24 C 41.96 37.64 43.13 38.81 44.46 39.99 C 42.69 40.02 41.33 39.60 39.74 38.92 C 40.77 40.07 41.69 41.30 42.63 42.51 C 40.76 41.87 38.93 41.12 37.12 40.32 C 38.11 39.28 39.07 38.19 40.16 37.24 Z" fill="#665634" />
<path d="M 13.11 39.17 C 11.62 40.59 10.04 43.55 7.70 43.31 C 8.07 42.62 8.44 41.94 8.81 41.26 C 7.63 40.40 6.44 39.54 5.28 38.64 C 8.16 38.24 10.53 37.17 13.11 39.17 Z" fill="#6a5b3a" />
<path d="M 13.86 41.00 C 13.42 42.77 12.13 45.12 10.06 45.16 C 9.73 43.39 12.25 41.35 13.86 41.00 Z" fill="#6c5d3c" />
<path d="M 36.75 41.45 C 36.75 41.45 36.75 41.45 36.75 41.45 Z" fill="#55441f" />
<path d="M 38.58 41.79 C 39.43 42.47 40.28 43.15 41.13 43.84 C 40.63 44.30 40.12 44.76 39.62 45.22 L 38.69 43.66 C 38.13 45.14 37.59 46.62 37.03 48.10 C 36.15 48.05 35.26 48.01 34.38 47.97 C 33.79 47.25 33.20 46.53 32.61 45.81 C 33.90 42.90 36.23 43.23 38.58 41.79 Z" fill="#7e7155" />
<path d="M 16.61 43.69 C 16.89 44.43 17.10 45.19 17.24 45.98 C 17.81 44.88 18.38 43.77 18.93 42.65 C 20.42 45.70 22.33 47.64 20.07 50.99 C 18.53 49.61 19.53 48.24 19.59 46.50 C 18.77 47.75 17.93 48.98 17.19 50.28 C 16.95 49.47 16.72 48.65 16.50 47.83 C 15.38 47.93 14.25 47.99 13.11 48.00 L 11.60 44.96 C 12.64 45.46 13.69 45.96 14.73 46.46 L 15.42 45.67 L 12.86 44.63 C 14.11 44.32 15.36 44.00 16.61 43.69 Z" fill="#716342" />
<path d="M 32.15 43.68 L 32.00 45.48 C 30.97 45.90 29.93 46.32 28.90 46.75 C 29.10 49.47 32.59 47.96 34.40 48.28 C 33.33 49.43 32.16 50.14 30.89 50.41 C 28.44 50.69 27.89 48.64 26.63 47.05 C 28.54 44.53 29.00 44.06 32.15 43.68 Z" fill="#7e7155" />
<path d="M 35.04 45.09 L 35.79 44.71 L 36.53 45.12 L 36.51 45.92 L 35.76 46.30 L 35.03 45.90 L 35.04 45.09 Z" fill="#e0ddd7" />
<path d="M 26.11 45.43 C 26.14 47.29 26.18 49.14 26.20 51.00 L 24.20 51.00 C 24.44 49.90 24.67 48.80 24.89 47.70 C 24.24 47.61 23.58 47.52 22.93 47.42 C 23.28 48.70 23.63 49.98 23.98 51.26 C 22.15 50.36 21.31 48.92 21.44 46.92 C 22.83 46.12 24.57 45.86 26.11 45.43 Z" fill="#54421c" /></svg>