<?xml version="1.0" encoding="UTF-8" standalone="yes"?>
<!DOCTYPE svg PUBLIC "-//W3C//DTD SVG 1.1//EN" "http://www.w3.org/Graphics/SVG/1.1/DTD/svg11.dtd">
<svg viewBox="0 0 860 245" height="245.0pt" width="860.0pt" xmlns="http://www.w3.org/2000/svg" version="1.1">
<path d="M 0.00 0.00 L 860.00 0.00 L 860.00 245.00 L 0.00 245.00 L 0.00 0.00 Z" fill="#ffffff" />
<path d="M 127.23 14.76 C 136.35 18.91 143.49 26.26 148.52 34.83 C 142.07 35.59 136.04 36.57 131.00 41.03 C 128.47 43.27 127.59 46.11 126.45 49.16 C 128.87 49.19 131.30 49.21 133.72 49.22 C 136.53 56.42 139.25 63.65 142.14 70.82 C 143.17 73.32 143.77 75.73 144.06 78.43 C 146.30 71.70 148.76 65.54 154.88 61.42 C 157.05 63.69 159.13 65.81 160.35 68.77 C 163.01 75.52 164.02 82.60 163.98 89.83 C 170.41 86.37 177.69 82.59 184.98 81.55 C 189.38 80.91 193.23 81.95 197.49 82.81 C 197.43 87.10 197.62 91.05 196.12 95.17 C 193.54 102.13 188.34 108.50 183.47 114.01 C 190.31 115.64 196.82 118.38 202.63 122.35 C 205.18 124.11 206.83 126.51 208.49 129.06 C 203.72 133.89 197.94 134.66 191.59 135.91 C 192.24 146.19 191.30 155.71 188.44 165.60 C 185.14 165.60 181.84 165.60 178.54 165.61 C 181.70 155.90 182.84 146.94 182.20 136.73 C 178.91 137.18 175.36 137.46 172.22 138.58 C 170.14 139.59 168.42 141.47 166.67 142.96 C 169.58 148.72 172.45 154.50 175.34 160.27 C 166.94 169.90 158.61 179.59 150.17 189.18 C 124.55 189.16 98.93 189.19 73.31 189.17 C 64.98 179.49 56.54 169.92 48.22 160.24 C 51.13 154.47 54.02 148.69 56.89 142.90 C 55.17 141.45 53.49 139.71 51.49 138.65 C 48.40 137.40 44.67 137.24 41.38 136.89 C 40.74 147.07 41.88 155.91 45.00 165.60 C 41.69 165.60 38.39 165.60 35.09 165.59 C 32.28 155.80 31.39 146.06 31.95 135.89 C 25.62 134.67 19.85 133.87 15.08 129.09 C 16.76 126.44 18.49 123.96 21.14 122.18 C 26.91 118.34 33.33 115.60 40.08 114.03 C 35.32 108.55 30.16 102.31 27.55 95.47 C 25.89 91.26 26.20 87.23 26.13 82.80 C 30.51 81.90 34.49 80.85 39.01 81.61 C 46.13 82.75 53.19 86.35 59.45 89.81 C 59.90 80.33 60.85 67.92 68.76 61.42 C 74.82 65.62 77.52 71.94 79.46 78.79 C 79.78 76.20 80.23 73.67 81.23 71.25 C 84.13 63.92 86.99 56.57 89.85 49.21 C 92.26 49.20 94.67 49.19 97.07 49.17 C 96.00 46.19 95.18 43.44 92.76 41.24 C 87.75 36.61 81.62 35.58 75.09 34.87 C 80.53 25.27 88.97 17.23 99.47 13.51 C 108.46 10.31 118.55 10.80 127.23 14.76 Z" fill="#4e3b11" />
<path d="M 136.31 30.52 C 132.89 31.62 129.70 32.51 127.02 35.05 C 122.55 39.29 120.82 44.61 119.14 50.36 C 114.23 50.36 109.31 50.36 104.40 50.36 C 102.72 44.46 100.91 39.02 96.21 34.77 C 93.61 32.37 90.55 31.62 87.28 30.54 C 89.73 27.80 92.04 25.16 95.22 23.22 C 108.35 15.33 127.07 17.73 136.31 30.52 Z" fill="#ffffff" />
<path d="M 128.77 56.49 C 131.38 63.24 133.98 69.99 136.66 76.71 C 120.09 76.71 103.51 76.72 86.93 76.70 C 89.59 70.00 92.06 63.21 94.87 56.56 C 106.16 56.37 117.47 56.54 128.77 56.49 Z" fill="#ffffff" />
<path d="M 154.21 71.85 C 155.95 77.47 157.17 83.11 157.11 89.02 C 157.06 94.23 155.92 99.17 154.46 104.13 C 162.41 98.72 170.93 93.27 180.00 89.96 C 183.45 88.64 187.06 88.24 190.74 88.26 C 189.95 91.95 188.72 95.46 186.64 98.63 C 181.48 106.65 174.39 113.79 167.47 120.32 C 178.68 119.10 189.26 121.82 198.87 127.57 C 188.67 130.35 178.21 129.17 168.18 132.42 C 164.87 128.52 161.58 124.59 158.27 120.70 C 159.35 119.08 160.43 117.47 161.52 115.85 C 154.66 111.78 147.79 107.70 140.93 103.64 C 143.91 99.04 146.41 94.24 147.87 88.94 C 149.52 82.99 151.58 77.44 154.21 71.85 Z" fill="#ffffff" />
<path d="M 69.29 71.82 C 72.03 77.46 74.12 83.23 75.79 89.26 C 77.24 94.46 79.71 99.16 82.67 103.64 C 75.77 107.68 68.91 111.78 62.04 115.85 C 63.12 117.45 64.21 119.06 65.30 120.65 C 62.01 124.59 58.70 128.49 55.40 132.41 C 45.36 129.17 34.92 130.34 24.72 127.58 C 34.55 121.69 44.58 119.23 56.06 120.27 C 49.08 113.63 41.88 106.47 36.72 98.29 C 34.71 95.22 33.60 91.81 32.79 88.26 C 36.60 88.22 40.27 88.68 43.84 90.05 C 52.74 93.36 61.20 98.78 69.05 104.07 C 65.54 93.20 65.82 82.65 69.29 71.82 Z" fill="#ffffff" />
<path d="M 86.91 80.82 C 103.48 80.81 120.05 80.82 136.62 80.81 C 136.62 82.55 136.62 84.28 136.62 86.01 C 120.05 86.02 103.48 86.02 86.91 86.01 C 86.91 84.28 86.91 82.55 86.91 80.82 Z" fill="#ffffff" />
<path d="M 759.24 85.30 C 763.86 83.54 769.13 84.97 772.16 88.88 C 776.18 93.76 775.28 101.44 770.24 105.27 C 765.27 109.20 757.76 108.00 754.15 102.84 C 749.89 96.84 752.16 87.91 759.24 85.30 Z" fill="#4e3b11" />
<path d="M 280.59 87.23 C 286.75 86.76 293.01 87.21 299.18 87.04 C 310.56 116.59 321.91 146.14 333.27 175.68 C 326.51 175.72 319.75 175.70 312.99 175.70 C 310.77 169.85 308.52 164.00 306.32 158.14 C 295.39 158.12 284.46 158.12 273.53 158.14 C 271.25 164.00 268.93 169.84 266.62 175.69 C 259.86 175.71 253.10 175.71 246.34 175.69 C 256.58 149.12 266.83 122.56 277.06 95.99 C 278.21 93.07 279.16 90.02 280.59 87.23 Z" fill="#4e3b11" />
<path d="M 358.50 86.70 C 358.54 116.37 358.51 146.03 358.51 175.70 C 352.38 175.71 346.26 175.70 340.13 175.70 C 340.13 148.91 340.11 122.12 340.14 95.33 C 346.25 92.44 352.37 89.56 358.50 86.70 Z" fill="#4e3b11" />
<path d="M 459.45 86.70 C 459.45 96.36 459.50 106.02 459.42 115.68 C 464.24 112.53 469.09 109.94 474.98 109.72 C 482.50 109.22 490.00 112.40 494.49 118.51 C 497.71 123.02 498.54 128.56 498.57 133.97 C 498.56 147.88 498.56 161.79 498.56 175.70 C 492.47 175.70 486.38 175.71 480.30 175.70 C 480.27 164.47 480.33 153.23 480.27 142.00 C 480.13 138.19 480.11 133.28 477.95 129.98 C 474.93 125.59 468.04 126.03 464.43 129.43 C 460.60 132.97 459.70 137.70 459.58 142.72 C 459.33 153.71 459.52 164.71 459.46 175.70 C 453.35 175.71 447.24 175.70 441.13 175.70 C 441.13 148.91 441.10 122.12 441.14 95.34 C 446.39 92.88 451.61 90.38 456.85 87.92 C 457.72 87.51 458.58 87.10 459.45 86.70 Z" fill="#4e3b11" />
<path d="M 643.00 87.57 C 652.81 87.18 662.22 90.00 670.63 94.92 C 667.82 100.48 665.02 106.04 662.20 111.60 C 658.06 109.09 653.88 106.95 649.02 106.26 C 640.51 104.84 631.61 107.32 625.50 113.52 C 614.80 123.65 615.18 143.07 626.18 152.82 C 633.67 159.50 644.60 161.07 654.02 158.10 C 660.10 156.11 664.65 151.91 669.19 147.60 C 670.34 154.60 672.86 159.96 677.10 165.57 C 671.35 170.20 665.48 174.22 658.22 176.05 C 642.38 180.05 624.32 177.42 612.31 165.69 C 598.91 153.28 595.78 132.56 601.80 115.80 C 608.03 99.01 625.40 88.08 643.00 87.57 Z" fill="#4e3b11" />
<path d="M 90.35 90.25 C 104.64 89.96 119.02 90.23 133.33 90.14 C 133.32 94.34 133.33 98.55 133.32 102.75 C 129.86 106.76 126.32 110.70 122.83 114.69 C 115.45 114.69 108.07 114.70 100.69 114.67 C 97.24 110.70 93.77 106.75 90.25 102.84 C 90.27 98.65 90.06 94.43 90.35 90.25 Z" fill="#ffffff" />
<path d="M 101.63 102.53 C 108.40 102.51 115.17 102.50 121.95 102.54 C 120.92 104.25 119.90 105.97 118.87 107.68 C 114.13 107.69 109.39 107.69 104.65 107.68 C 103.64 105.97 102.63 104.25 101.63 102.53 Z" fill="#4e3b11" />
<path d="M 87.41 108.87 C 90.22 115.48 93.00 122.11 95.79 128.73 C 93.93 134.30 92.07 139.87 90.20 145.45 C 84.10 136.31 77.91 127.23 71.79 118.11 C 76.99 115.03 82.20 111.95 87.41 108.87 Z" fill="#ffffff" />
<path d="M 136.20 109.07 C 141.55 111.76 146.55 115.17 151.77 118.11 C 145.63 127.24 139.49 136.37 133.29 145.46 C 131.48 139.90 129.65 134.34 127.75 128.80 C 130.61 122.25 133.10 115.50 136.20 109.07 Z" fill="#ffffff" />
<path d="M 391.50 110.70 C 403.79 107.52 417.35 111.78 425.67 121.35 C 433.99 130.76 436.11 144.65 431.39 156.24 C 427.92 164.88 420.92 171.88 412.16 175.10 C 403.55 178.24 393.36 178.04 385.10 173.91 C 372.89 167.72 365.37 154.74 366.54 141.00 C 367.24 126.77 377.85 114.34 391.50 110.70 Z" fill="#4e3b11" />
<path d="M 542.81 110.43 C 547.00 111.38 550.48 113.52 553.97 115.92 C 553.94 113.85 553.92 111.79 553.91 109.73 C 560.08 109.71 566.24 109.71 572.41 109.72 C 572.41 131.71 572.41 153.70 572.41 175.69 C 566.24 175.70 560.08 175.72 553.92 175.68 C 553.93 174.17 553.95 172.67 553.97 171.17 C 548.10 175.60 541.41 177.88 534.00 177.14 C 523.74 176.39 515.02 169.71 510.07 160.93 C 502.51 147.00 504.91 126.83 517.49 116.48 C 524.38 110.45 533.94 108.39 542.81 110.43 Z" fill="#4e3b11" />
<path d="M 704.46 110.56 C 714.17 108.28 724.59 110.45 732.61 116.36 C 740.77 122.25 745.86 131.95 746.24 141.99 C 746.73 153.04 741.61 164.13 732.66 170.69 C 723.71 177.39 711.25 179.02 700.77 175.32 C 687.18 170.31 677.94 156.56 678.88 142.01 C 679.10 127.18 690.20 114.06 704.46 110.56 Z" fill="#4e3b11" />
<path d="M 834.32 115.69 C 839.27 120.19 840.84 126.50 840.86 132.99 C 840.87 147.22 840.85 161.47 840.86 175.70 C 834.79 175.70 828.72 175.70 822.65 175.70 C 822.62 165.46 822.67 155.22 822.64 144.97 C 822.55 141.06 822.58 136.97 821.70 133.15 C 821.08 130.50 819.39 128.19 816.76 127.29 C 812.49 125.88 807.78 127.57 805.23 131.24 C 802.03 135.65 802.04 140.75 801.89 145.99 C 801.88 155.89 801.90 165.80 801.89 175.70 C 795.74 175.70 789.60 175.70 783.45 175.70 C 783.45 154.23 783.45 132.76 783.45 111.28 C 789.60 111.28 795.75 111.28 801.89 111.28 C 801.89 112.78 801.88 114.27 801.87 115.76 C 804.36 114.16 806.68 112.58 809.43 111.45 C 817.76 108.10 827.69 109.46 834.32 115.69 Z" fill="#4e3b11" />
<path d="M 772.51 111.75 C 772.53 133.07 772.52 154.38 772.52 175.70 C 766.39 175.71 760.26 175.70 754.13 175.70 C 754.13 157.26 754.13 138.82 754.14 120.38 C 760.25 117.47 766.37 114.60 772.51 111.75 Z" fill="#4e3b11" />
<path d="M 289.96 115.63 C 292.96 123.46 296.08 131.26 299.02 139.11 C 292.96 139.12 286.90 139.13 280.84 139.11 C 283.78 131.24 286.90 123.44 289.96 115.63 Z" fill="#ffffff" />
<path d="M 104.30 119.32 C 109.29 118.92 114.34 119.26 119.34 119.18 C 124.44 134.38 129.47 149.61 134.57 164.82 C 132.07 164.82 129.56 164.81 127.06 164.79 C 125.41 159.70 123.69 154.63 122.02 149.54 C 115.20 149.51 108.38 149.53 101.57 149.52 C 99.84 154.61 98.15 159.71 96.47 164.82 C 93.97 164.82 91.48 164.82 88.98 164.83 C 94.14 149.73 98.93 134.31 104.30 119.32 Z" fill="#ffffff" />
<path d="M 109.16 126.70 C 110.90 126.69 112.64 126.68 114.38 126.67 C 116.10 131.79 117.80 136.92 119.50 142.04 C 114.35 142.05 109.21 142.05 104.06 142.04 C 105.73 136.92 107.45 131.81 109.16 126.70 Z" fill="#4e3b11" />
<path d="M 395.51 127.83 C 400.84 126.43 406.68 127.34 410.66 131.34 C 415.46 135.91 416.26 143.47 414.41 149.55 C 412.27 156.08 405.87 160.46 398.97 159.86 C 391.85 159.63 386.13 153.95 385.12 147.02 C 383.61 138.95 387.33 130.36 395.51 127.83 Z" fill="#ffffff" />
<path d="M 534.47 127.66 C 539.79 125.99 545.90 127.09 549.92 131.07 C 555.14 135.98 555.72 144.85 553.13 151.18 C 550.20 158.23 541.93 161.87 534.72 159.41 C 528.17 157.22 524.21 150.77 524.23 143.99 C 523.86 136.93 527.57 129.99 534.47 127.66 Z" fill="#ffffff" />
<path d="M 708.46 127.67 C 712.74 126.73 717.56 127.18 721.20 129.79 C 728.99 135.03 729.76 147.98 723.79 154.80 C 718.50 161.15 708.00 161.64 702.07 155.93 C 697.43 151.59 696.46 144.71 697.77 138.74 C 699.03 133.45 703.15 129.01 708.46 127.67 Z" fill="#ffffff" />
<path d="M 68.52 127.57 C 75.09 135.45 81.74 143.26 88.34 151.11 C 87.46 153.73 86.58 156.35 85.70 158.97 C 77.35 151.61 69.06 144.18 60.72 136.81 C 63.33 133.73 65.93 130.66 68.52 127.57 Z" fill="#ffffff" />
<path d="M 155.04 127.70 C 157.75 130.64 160.26 133.77 162.82 136.83 C 154.49 144.22 146.18 151.62 137.85 159.01 C 136.97 156.37 136.09 153.73 135.22 151.08 C 141.87 143.33 148.33 135.40 155.04 127.70 Z" fill="#ffffff" />
<path d="M 63.88 145.49 C 68.26 148.97 72.25 152.97 76.53 156.59 C 76.52 159.43 76.52 162.26 76.50 165.10 C 71.73 164.98 66.78 165.48 62.05 164.81 C 60.06 163.41 58.32 161.22 57.13 159.11 C 59.04 154.48 61.47 149.89 63.88 145.49 Z" fill="#ffffff" />
<path d="M 159.76 145.31 C 162.06 149.96 164.38 154.60 166.72 159.23 C 165.00 161.12 163.41 163.58 161.23 164.94 C 156.54 165.37 151.76 165.02 147.05 165.10 C 147.02 162.24 147.02 159.38 147.08 156.52 C 151.34 152.83 155.53 149.04 159.76 145.31 Z" fill="#ffffff" />
<path d="M 105.59 153.62 C 109.72 153.22 113.94 153.52 118.09 153.47 C 119.23 156.91 120.38 160.34 121.55 163.77 C 118.29 161.61 115.05 159.44 111.81 157.27 C 108.54 159.42 105.29 161.59 102.04 163.77 C 103.18 160.39 104.07 156.85 105.59 153.62 Z" fill="#ffffff" />
<path d="M 109.20 164.38 C 109.21 170.30 109.21 176.23 109.21 182.15 C 103.36 182.15 97.52 182.14 91.67 182.17 C 91.62 177.87 91.65 173.58 91.63 169.29 C 94.97 169.25 98.44 169.58 101.74 169.07 C 103.57 168.29 105.26 167.06 106.91 165.96 C 107.68 165.43 108.44 164.90 109.20 164.38 Z" fill="#ffffff" />
<path d="M 114.39 164.41 C 116.81 165.97 119.19 167.99 121.88 169.07 C 125.16 169.56 128.59 169.26 131.91 169.29 C 131.91 173.58 131.91 177.86 131.89 182.15 C 126.06 182.15 120.23 182.15 114.41 182.15 C 114.38 176.24 114.40 170.32 114.39 164.41 Z" fill="#ffffff" />
<path d="M 65.57 169.30 C 72.54 169.30 79.51 169.30 86.48 169.30 C 86.47 173.58 86.47 177.87 86.46 182.15 C 83.24 182.15 80.03 182.15 76.81 182.16 C 73.03 177.90 69.34 173.56 65.57 169.30 Z" fill="#ffffff" />
<path d="M 137.08 169.29 C 144.05 169.31 151.02 169.30 157.99 169.30 C 154.23 173.58 150.51 177.90 146.75 182.17 C 143.53 182.15 140.31 182.15 137.10 182.15 C 137.07 177.86 137.08 173.58 137.08 169.29 Z" fill="#ffffff" />
<path d="M 177.01 169.65 C 181.91 170.83 186.26 174.49 190.72 176.81 C 189.80 178.63 188.89 180.44 187.97 182.25 C 185.39 180.76 182.85 179.18 180.25 177.73 C 178.69 176.98 177.41 176.03 175.61 176.49 C 174.79 178.03 174.78 179.58 176.26 180.69 C 179.08 182.93 182.44 184.53 185.52 186.41 C 184.36 188.12 183.20 189.83 182.03 191.53 C 176.02 188.01 170.04 184.45 164.03 180.94 C 165.88 178.94 166.78 176.69 169.79 176.36 C 170.86 172.62 172.68 169.64 177.01 169.65 Z" fill="#4e3b11" />
<path d="M 54.10 172.35 C 55.74 174.28 57.39 176.21 59.05 178.13 C 53.75 184.24 48.40 190.31 43.03 196.36 C 41.77 194.77 40.53 193.19 39.28 191.60 C 40.41 190.30 41.55 189.01 42.68 187.71 C 41.25 185.19 39.80 182.66 38.36 180.14 C 36.38 180.26 34.39 180.38 32.41 180.51 C 31.46 178.56 30.53 176.61 29.62 174.65 C 37.78 173.92 45.94 173.11 54.10 172.35 Z" fill="#4e3b11" />
<path d="M 50.66 178.72 C 49.35 180.27 48.04 181.82 46.74 183.37 C 45.95 182.03 45.17 180.69 44.39 179.35 C 46.48 179.15 48.57 178.93 50.66 178.72 Z" fill="#ffffff" />
<path d="M 158.22 183.08 C 160.50 181.40 163.86 183.16 163.74 186.00 C 163.81 188.78 160.51 190.32 158.33 188.75 C 156.34 187.43 156.32 184.48 158.22 183.08 Z" fill="#4e3b11" />
<path d="M 60.19 184.16 C 62.44 184.40 64.67 185.15 66.85 185.73 C 61.42 191.92 55.96 198.10 50.58 204.33 C 48.94 202.79 47.32 201.22 45.72 199.64 C 50.58 194.55 55.07 188.96 60.19 184.16 Z" fill="#4e3b11" />
<path d="M 165.55 186.20 C 169.83 189.43 173.84 193.03 177.99 196.42 C 176.68 198.03 175.35 199.62 174.01 201.20 C 170.43 198.27 166.87 195.31 163.29 192.37 C 164.01 190.32 164.70 188.20 165.55 186.20 Z" fill="#4e3b11" />
<path d="M 151.68 194.90 C 155.98 192.73 161.35 193.89 164.27 197.73 C 167.41 201.79 167.01 207.76 163.19 211.24 C 159.01 215.40 151.47 214.69 148.13 209.83 C 144.48 204.96 146.17 197.56 151.68 194.90 Z" fill="#4e3b11" />
<path d="M 63.36 195.43 C 67.63 193.97 72.27 195.34 74.91 199.01 C 78.43 203.80 76.91 210.82 71.74 213.73 C 66.61 216.79 59.57 214.34 57.38 208.82 C 55.20 203.58 58.00 197.28 63.36 195.43 Z" fill="#4e3b11" />
<path d="M 82.65 195.29 C 84.75 195.03 86.91 195.11 89.02 195.08 C 88.14 197.99 87.24 200.90 86.29 203.79 C 90.79 203.96 94.82 204.80 95.57 209.95 C 95.10 215.34 92.75 220.65 91.38 225.89 C 89.39 225.36 87.39 224.83 85.40 224.30 C 86.35 221.03 87.39 217.79 88.29 214.50 C 88.64 212.70 89.46 211.23 88.29 209.54 C 86.84 209.33 85.56 209.18 84.66 210.59 C 82.65 214.30 81.89 218.75 80.54 222.74 C 78.64 221.97 76.74 221.21 74.84 220.45 C 77.35 212.05 79.72 203.54 82.65 195.29 Z" fill="#4e3b11" />
<path d="M 132.01 197.97 C 135.48 197.06 138.51 197.91 141.88 198.69 C 141.39 200.90 140.88 203.10 140.37 205.30 C 137.43 204.45 134.86 203.38 131.88 204.91 C 128.45 206.64 127.25 210.78 128.82 214.22 C 130.20 217.42 133.65 218.95 137.00 218.03 C 140.09 217.31 141.43 214.68 143.27 212.38 C 145.14 213.49 147.01 214.60 148.87 215.73 C 147.04 218.25 145.39 221.05 142.61 222.65 C 138.33 225.20 132.30 225.70 127.97 222.99 C 123.53 220.36 121.18 215.03 121.45 209.98 C 121.88 204.17 126.43 199.32 132.01 197.97 Z" fill="#4e3b11" />
<path d="M 154.17 200.18 C 156.95 198.49 160.19 201.10 160.40 204.00 C 160.67 207.01 156.96 209.40 154.40 207.53 C 151.76 205.78 151.15 201.91 154.17 200.18 Z" fill="#ffffff" />
<path d="M 65.13 201.13 C 67.27 199.83 70.59 201.53 70.79 204.05 C 71.13 207.39 67.59 210.71 64.39 208.55 C 61.47 206.66 62.44 202.69 65.13 201.13 Z" fill="#ffffff" />
<path d="M 110.48 204.80 C 112.51 204.84 114.54 204.88 116.58 204.92 C 116.61 212.22 116.58 219.53 116.60 226.83 C 114.56 226.97 112.52 227.10 110.48 227.21 L 110.34 225.29 C 107.06 226.02 104.20 226.86 101.12 224.88 C 94.68 220.89 94.97 210.23 101.77 206.77 C 104.81 205.16 107.46 206.16 110.54 206.89 L 110.48 204.80 Z" fill="#4e3b11" />
<path d="M 104.41 212.45 C 107.17 210.53 110.65 212.75 110.50 216.00 C 110.64 218.92 107.89 221.27 105.09 220.04 C 102.18 218.73 101.89 214.29 104.41 212.45 Z" fill="#ffffff" /></svg>